{
date = "2013-05-07 17:01:52 +0000";
designer = "Shinji Pons";
designerURL = www.shinjipons.com;
familyName = "Modulo 22";
fontMaster = (
{
alignmentZones = (
"{128, 129}",
"{128, 129}",
"{128, 129}",
"{0, -2}",
"{0, -2}"
);
ascender = 128;
capHeight = 128;
customParameters = (
{
name = familyName;
value = "Modulo 22";
}
);
descender = 0;
guideLines = (
{
position = "{-25, 43}";
},
{
angle = 90;
position = "{93, 139}";
},
{
angle = 90;
position = "{51, 135}";
},
{
position = "{-22, 85}";
},
{
angle = 90;
position = "{50, 143}";
},
{
angle = 90;
position = "{94, 136}";
},
{
position = "{-22, 86}";
},
{
position = "{-24, 42}";
},
{
angle = 90;
position = "{136, -22}";
},
{
angle = 90;
position = "{8, -30}";
}
);
horizontalStems = (
22
);
id = "940E2F63-624A-4C3D-A909-721782B4CF41";
verticalStems = (
22
);
weightValue = 22;
widthValue = 128;
xHeight = 128;
}
);
glyphs = (
{
glyphname = A;
lastChange = "2013-05-31 19:43:15 +0200";
layers = (
{
guideLines = (
{
position = "{-9, 59}";
showMeasurement = 1;
},
{
angle = 90;
position = "{73, -10}";
showMeasurement = 1;
}
);
layerId = "940E2F63-624A-4C3D-A909-721782B4CF41";
name = Regular;
paths = (
{
closed = 1;
nodes = (
"136 128 LINE",
"136 0 LINE",
"8 0 LINE",
"8 85 LINE",
"93 85 LINE",
"93 43 LINE",
"50 43 LINE",
"50 42 LINE",
"94 42 LINE",
"94 86 LINE",
"8 86 LINE",
"8 128 LINE"
);
}
);
width = 144;
}
);
unicode = 0041;
},
{
glyphname = B;
lastChange = "2013-05-31 19:41:08 +0200";
layers = (
{
layerId = "940E2F63-624A-4C3D-A909-721782B4CF41";
name = Regular;
paths = (
{
closed = 1;
nodes = (
"8 128 LINE",
"8 0 LINE",
"50 0 LINE",
"50 86 LINE",
"94 86 LINE",
"94 85 LINE",
"51 85 LINE",
"51 43 LINE",
"94 43 LINE",
"94 42 LINE",
"51 42 LINE",
"51 0 LINE",
"136 0 LINE",
"136 128 LINE"
);
}
);
width = 144;
}
);
unicode = 0042;
},
{
glyphname = C;
lastChange = "2013-05-31 19:41:52 +0200";
layers = (
{
layerId = "940E2F63-624A-4C3D-A909-721782B4CF41";
name = Regular;
paths = (
{
closed = 1;
nodes = (
"8 0 LINE",
"8 128 LINE",
"136 128 LINE",
"136 86 LINE",
"50 86 LINE",
"50 42 LINE",
"136 42 LINE",
"136 0 LINE"
);
}
);
width = 144;
}
);
unicode = 0043;
},
{
glyphname = D;
lastChange = "2013-05-31 19:42:16 +0200";
layers = (
{
layerId = "940E2F63-624A-4C3D-A909-721782B4CF41";
name = Regular;
paths = (
{
closed = 1;
nodes = (
"136 128 LINE",
"8 128 LINE",
"8 86 LINE",
"94 86 LINE",
"94 42 LINE",
"50 42 LINE",
"50 85 LINE",
"8 85 LINE",
"8 0 LINE",
"136 0 LINE"
);
}
);
width = 144;
}
);
unicode = 0044;
},
{
glyphname = E;
lastChange = "2013-05-31 19:42:43 +0200";
layers = (
{
layerId = "940E2F63-624A-4C3D-A909-721782B4CF41";
name = Regular;
paths = (
{
closed = 1;
nodes = (
"136 43 LINE",
"136 128 LINE",
"51 128 LINE",
"51 86 LINE",
"94 86 LINE",
"94 85 LINE",
"50 85 LINE",
"50 128 LINE",
"8 128 LINE",
"8 0 LINE",
"136 0 LINE",
"136 42 LINE",
"50 42 LINE",
"50 43 LINE"
);
}
);
width = 144;
}
);
unicode = 0045;
},
{
glyphname = F;
lastChange = "2013-05-31 19:43:03 +0200";
layers = (
{
layerId = "940E2F63-624A-4C3D-A909-721782B4CF41";
name = Regular;
paths = (
{
closed = 1;
nodes = (
"50 0 LINE",
"50 43 LINE",
"136 43 LINE",
"136 85 LINE",
"50 85 LINE",
"50 86 LINE",
"136 86 LINE",
"136 128 LINE",
"8 128 LINE",
"8 0 LINE"
);
}
);
width = 144;
}
);
unicode = 0046;
},
{
glyphname = H;
lastChange = "2013-05-31 19:43:34 +0200";
layers = (
{
layerId = "940E2F63-624A-4C3D-A909-721782B4CF41";
name = Regular;
paths = (
{
closed = 1;
nodes = (
"94 128 LINE",
"94 85 LINE",
"50 85 LINE",
"50 128 LINE",
"8 128 LINE",
"8 0 LINE",
"50 0 LINE",
"50 43 LINE",
"94 43 LINE",
"94 0 LINE",
"136 0 LINE",
"136 128 LINE"
);
}
);
width = 144;
}
);
unicode = 0048;
},
{
glyphname = J;
lastChange = "2013-05-31 19:44:10 +0200";
layers = (
{
layerId = "940E2F63-624A-4C3D-A909-721782B4CF41";
name = Regular;
paths = (
{
closed = 1;
nodes = (
"136 128 LINE",
"94 128 LINE",
"94 42 LINE",
"50 42 LINE",
"50 43 LINE",
"8 43 LINE",
"8 0 LINE",
"136 0 LINE"
);
}
);
width = 144;
}
);
unicode = 004A;
},
{
glyphname = K;
lastChange = "2013-05-31 19:44:53 +0200";
layers = (
{
layerId = "940E2F63-624A-4C3D-A909-721782B4CF41";
name = Regular;
paths = (
{
closed = 1;
nodes = (
"136 86 LINE",
"136 128 LINE",
"51 128 LINE",
"51 85 LINE",
"50 85 LINE",
"50 128 LINE",
"8 128 LINE",
"8 0 LINE",
"50 0 LINE",
"50 43 LINE",
"94 43 LINE",
"94 0 LINE",
"136 0 LINE",
"136 85 LINE",
"93 85 LINE",
"93 86 LINE"
);
}
);
width = 144;
}
);
unicode = 004B;
},
{
glyphname = M;
lastChange = "2013-05-31 19:45:23 +0200";
layers = (
{
layerId = "940E2F63-624A-4C3D-A909-721782B4CF41";
name = Regular;
paths = (
{
closed = 1;
nodes = (
"8 128 LINE",
"8 0 LINE",
"50 0 LINE",
"50 86 LINE",
"51 86 LINE",
"51 0 LINE",
"93 0 LINE",
"93 86 LINE",
"94 86 LINE",
"94 0 LINE",
"136 0 LINE",
"136 128 LINE"
);
}
);
width = 144;
}
);
unicode = 004D;
},
{
glyphname = N;
lastChange = "2013-05-31 19:46:25 +0200";
layers = (
{
layerId = "940E2F63-624A-4C3D-A909-721782B4CF41";
name = Regular;
paths = (
{
closed = 1;
nodes = (
"94 128 LINE",
"94 42 LINE",
"93 42 LINE",
"93 128 LINE",
"8 128 LINE",
"8 0 LINE",
"50 0 LINE",
"50 96 LINE",
"51 96 LINE",
"51 0 LINE",
"136 0 LINE",
"136 128 LINE"
);
}
);
width = 144;
}
);
unicode = 004E;
},
{
glyphname = O;
lastChange = "2013-05-31 19:46:36 +0200";
layers = (
{
layerId = "940E2F63-624A-4C3D-A909-721782B4CF41";
name = Regular;
paths = (
{
closed = 1;
nodes = (
"8 128 LINE",
"8 0 LINE",
"136 0 LINE",
"136 128 LINE"
);
},
{
closed = 1;
nodes = (
"94 42 LINE",
"50 42 LINE",
"50 86 LINE",
"94 86 LINE"
);
}
);
width = 144;
}
);
unicode = 004F;
},
{
glyphname = P;
lastChange = "2013-05-31 19:46:56 +0200";
layers = (
{
layerId = "940E2F63-624A-4C3D-A909-721782B4CF41";
name = Regular;
paths = (
{
closed = 1;
nodes = (
"8 0 LINE",
"8 128 LINE",
"136 128 LINE",
"136 43 LINE",
"51 43 LINE",
"51 85 LINE",
"94 85 LINE",
"94 86 LINE",
"50 86 LINE",
"50 0 LINE"
);
}
);
width = 144;
}
);
unicode = 0050;
},
{
glyphname = Q;
lastChange = "2013-05-31 19:47:14 +0200";
layers = (
{
layerId = "940E2F63-624A-4C3D-A909-721782B4CF41";
name = Regular;
paths = (
{
closed = 1;
nodes = (
"8 128 LINE",
"8 0 LINE",
"136 0 LINE",
"136 128 LINE"
);
},
{
closed = 1;
nodes = (
"94 42 LINE",
"88 42 LINE",
"88 43 LINE",
"56 43 LINE",
"56 42 LINE",
"50 42 LINE",
"50 86 LINE",
"94 86 LINE"
);
}
);
width = 144;
}
);
unicode = 0051;
},
{
glyphname = R;
lastChange = "2013-05-31 19:47:48 +0200";
layers = (
{
layerId = "940E2F63-624A-4C3D-A909-721782B4CF41";
name = Regular;
paths = (
{
closed = 1;
nodes = (
"136 43 LINE",
"136 128 LINE",
"8 128 LINE",
"8 0 LINE",
"50 0 LINE",
"50 86 LINE",
"94 86 LINE",
"94 85 LINE",
"51 85 LINE",
"51 0 LINE",
"136 0 LINE",
"136 42 LINE",
"93 42 LINE",
"93 43 LINE"
);
}
);
width = 144;
}
);
unicode = 0052;
},
{
glyphname = T;
lastChange = "2013-05-31 19:48:14 +0200";
layers = (
{
layerId = "940E2F63-624A-4C3D-A909-721782B4CF41";
name = Regular;
paths = (
{
closed = 1;
nodes = (
"8 128 LINE",
"8 85 LINE",
"40 85 LINE",
"40 86 LINE",
"51 86 LINE",
"51 0 LINE",
"93 0 LINE",
"93 86 LINE",
"104 86 LINE",
"104 85 LINE",
"136 85 LINE",
"136 128 LINE"
);
}
);
width = 144;
}
);
unicode = 0054;
},
{
glyphname = V;
lastChange = "2013-05-31 19:49:00 +0200";
layers = (
{
layerId = "940E2F63-624A-4C3D-A909-721782B4CF41";
name = Regular;
paths = (
{
closed = 1;
nodes = (
"8 0 LINE",
"93 0 LINE",
"93 43 LINE",
"136 43 LINE",
"136 128 LINE",
"94 128 LINE",
"94 85 LINE",
"51 85 LINE",
"51 42 LINE",
"50 42 LINE",
"50 128 LINE",
"8 128 LINE"
);
}
);
width = 144;
}
);
unicode = 0056;
},
{
glyphname = X;
lastChange = "2013-05-31 19:49:40 +0200";
layers = (
{
layerId = "940E2F63-624A-4C3D-A909-721782B4CF41";
name = Regular;
paths = (
{
closed = 1;
nodes = (
"136 85 LINE",
"136 128 LINE",
"8 128 LINE",
"8 85 LINE",
"50 85 LINE",
"50 86 LINE",
"51 86 LINE",
"51 42 LINE",
"50 42 LINE",
"50 43 LINE",
"8 43 LINE",
"8 0 LINE",
"136 0 LINE",
"136 43 LINE",
"94 43 LINE",
"94 42 LINE",
"93 42 LINE",
"93 86 LINE",
"94 86 LINE",
"94 85 LINE"
);
}
);
width = 144;
}
);
unicode = 0058;
},
{
glyphname = Y;
lastChange = "2013-05-31 19:50:06 +0200";
layers = (
{
layerId = "940E2F63-624A-4C3D-A909-721782B4CF41";
name = Regular;
paths = (
{
closed = 1;
nodes = (
"94 128 LINE",
"94 85 LINE",
"50 85 LINE",
"50 128 LINE",
"8 128 LINE",
"8 43 LINE",
"94 43 LINE",
"94 42 LINE",
"8 42 LINE",
"8 0 LINE",
"136 0 LINE",
"136 128 LINE"
);
}
);
width = 144;
}
);
unicode = 0059;
},
{
glyphname = zero;
lastChange = "2013-05-31 19:51:58 +0200";
layers = (
{
components = (
{
name = O;
transform = "{1, 0, 0, 1, 0, 0}";
}
);
layerId = "940E2F63-624A-4C3D-A909-721782B4CF41";
name = Regular;
paths = (
{
closed = 1;
nodes = (
"51 43 LINE",
"93 43 LINE",
"93 85 LINE",
"51 85 LINE"
);
}
);
width = 144;
}
);
unicode = 0030;
},
{
glyphname = one;
lastChange = "2013-05-31 19:52:17 +0200";
layers = (
{
layerId = "940E2F63-624A-4C3D-A909-721782B4CF41";
name = Regular;
paths = (
{
closed = 1;
nodes = (
"93 42 LINE",
"93 128 LINE",
"8 128 LINE",
"8 86 LINE",
"51 86 LINE",
"51 42 LINE",
"8 42 LINE",
"8 0 LINE",
"136 0 LINE",
"136 42 LINE"
);
}
);
width = 144;
}
);
unicode = 0031;
},
{
glyphname = four;
lastChange = "2013-05-31 19:52:36 +0200";
layers = (
{
layerId = "940E2F63-624A-4C3D-A909-721782B4CF41";
name = Regular;
paths = (
{
closed = 1;
nodes = (
"94 128 LINE",
"94 85 LINE",
"50 85 LINE",
"50 128 LINE",
"8 128 LINE",
"8 43 LINE",
"94 43 LINE",
"94 0 LINE",
"136 0 LINE",
"136 128 LINE"
);
}
);
width = 144;
}
);
unicode = 0034;
},
{
glyphname = seven;
lastChange = "2013-05-31 19:52:57 +0200";
layers = (
{
layerId = "940E2F63-624A-4C3D-A909-721782B4CF41";
name = Regular;
paths = (
{
closed = 1;
nodes = (
"8 128 LINE",
"8 86 LINE",
"104 86 LINE",
"104 85 LINE",
"51 85 LINE",
"51 0 LINE",
"93 0 LINE",
"93 43 LINE",
"136 43 LINE",
"136 128 LINE"
);
}
);
width = 144;
}
);
unicode = 0037;
},
{
glyphname = eight;
lastChange = "2013-05-31 19:53:44 +0200";
layers = (
{
layerId = "940E2F63-624A-4C3D-A909-721782B4CF41";
name = Regular;
paths = (
{
closed = 1;
nodes = (
"8 128 LINE",
"8 0 LINE",
"136 0 LINE",
"136 128 LINE"
);
},
{
closed = 1;
nodes = (
"94 85 LINE",
"93 85 LINE",
"93 43 LINE",
"94 43 LINE",
"94 42 LINE",
"50 42 LINE",
"50 43 LINE",
"51 43 LINE",
"51 85 LINE",
"50 85 LINE",
"50 86 LINE",
"94 86 LINE"
);
}
);
width = 144;
}
);
unicode = 0038;
},
{
glyphname = asterisk;
lastChange = "2013-05-31 19:54:06 +0200";
layers = (
{
components = (
{
name = plus;
transform = "{1, 0, 0, 1, 0, 0}";
}
);
layerId = "940E2F63-624A-4C3D-A909-721782B4CF41";
name = Regular;
paths = (
{
closed = 1;
nodes = (
"50 128 LINE",
"8 128 LINE",
"8 86 LINE",
"50 86 LINE"
);
},
{
closed = 1;
nodes = (
"94 128 LINE",
"94 86 LINE",
"136 86 LINE",
"136 128 LINE"
);
},
{
closed = 1;
nodes = (
"8 0 LINE",
"50 0 LINE",
"50 42 LINE",
"8 42 LINE"
);
},
{
closed = 1;
nodes = (
"94 0 LINE",
"136 0 LINE",
"136 42 LINE",
"94 42 LINE"
);
}
);
width = 144;
}
);
unicode = 002A;
},
{
glyphname = backslash;
lastChange = "2013-05-31 19:54:27 +0200";
layers = (
{
layerId = "940E2F63-624A-4C3D-A909-721782B4CF41";
name = Regular;
paths = (
{
closed = 1;
nodes = (
"8 0 LINE",
"50 0 LINE",
"50 128 LINE",
"8 128 LINE"
);
},
{
closed = 1;
nodes = (
"51 0 LINE",
"93 0 LINE",
"93 128 LINE",
"51 128 LINE"
);
},
{
closed = 1;
nodes = (
"94 0 LINE",
"136 0 LINE",
"136 128 LINE",
"94 128 LINE"
);
}
);
width = 144;
}
);
unicode = 005C;
},
{
glyphname = bullet;
lastChange = "2013-05-31 19:54:40 +0200";
layers = (
{
layerId = "940E2F63-624A-4C3D-A909-721782B4CF41";
name = Regular;
paths = (
{
closed = 1;
nodes = (
"8 128 LINE",
"8 86 LINE",
"136 86 LINE",
"136 128 LINE"
);
},
{
closed = 1;
nodes = (
"8 85 LINE",
"8 43 LINE",
"136 43 LINE",
"136 85 LINE"
);
},
{
closed = 1;
nodes = (
"8 42 LINE",
"8 0 LINE",
"136 0 LINE",
"136 42 LINE"
);
}
);
width = 144;
}
);
unicode = 2022;
},
{
glyphname = comma;
lastChange = "2013-05-09 21:48:47 +0200";
layers = (
{
layerId = "940E2F63-624A-4C3D-A909-721782B4CF41";
name = Regular;
paths = (
{
closed = 1;
nodes = (
"8 0 LINE",
"136 0 LINE",
"136 128 LINE",
"8 128 LINE"
);
}
);
width = 144;
}
);
unicode = 002C;
},
{
glyphname = ellipsis;
lastChange = "2013-05-31 19:55:23 +0200";
layers = (
{
layerId = "940E2F63-624A-4C3D-A909-721782B4CF41";
name = Regular;
paths = (
{
closed = 1;
nodes = (
"50 42 LINE",
"8 42 LINE",
"8 0 LINE",
"50 0 LINE"
);
},
{
closed = 1;
nodes = (
"8 128 LINE",
"8 86 LINE",
"136 86 LINE",
"136 128 LINE"
);
},
{
closed = 1;
nodes = (
"8 85 LINE",
"8 43 LINE",
"136 43 LINE",
"136 85 LINE"
);
},
{
closed = 1;
nodes = (
"93 42 LINE",
"51 42 LINE",
"51 0 LINE",
"93 0 LINE"
);
},
{
closed = 1;
nodes = (
"136 42 LINE",
"94 42 LINE",
"94 0 LINE",
"136 0 LINE"
);
}
);
width = 144;
}
);
unicode = 2026;
},
{
glyphname = exclam;
lastChange = "2013-05-31 19:56:12 +0200";
layers = (
{
layerId = "940E2F63-624A-4C3D-A909-721782B4CF41";
name = Regular;
paths = (
{
closed = 1;
nodes = (
"136 128 LINE",
"94 128 LINE",
"94 43 LINE",
"136 43 LINE"
);
},
{
closed = 1;
nodes = (
"93 128 LINE",
"51 128 LINE",
"51 43 LINE",
"93 43 LINE"
);
},
{
closed = 1;
nodes = (
"50 128 LINE",
"8 128 LINE",
"8 43 LINE",
"50 43 LINE"
);
},
{
closed = 1;
nodes = (
"50 42 LINE",
"8 42 LINE",
"8 0 LINE",
"50 0 LINE"
);
},
{
closed = 1;
nodes = (
"136 42 LINE",
"94 42 LINE",
"94 0 LINE",
"136 0 LINE"
);
},
{
closed = 1;
nodes = (
"93 42 LINE",
"51 42 LINE",
"51 0 LINE",
"93 0 LINE"
);
}
);
width = 144;
}
);
unicode = 0021;
},
{
glyphname = numbersign;
lastChange = "2013-05-31 19:58:09 +0200";
layers = (
{
layerId = "940E2F63-624A-4C3D-A909-721782B4CF41";
name = Regular;
paths = (
{
closed = 1;
nodes = (
"8 128 LINE",
"8 0 LINE",
"136 0 LINE",
"136 128 LINE"
);
},
{
closed = 1;
nodes = (
"51 43 LINE",
"51 42 LINE",
"50 42 LINE",
"50 43 LINE"
);
},
{
closed = 1;
nodes = (
"94 43 LINE",
"94 42 LINE",
"93 42 LINE",
"93 43 LINE"
);
},
{
closed = 1;
nodes = (
"51 86 LINE",
"51 85 LINE",
"50 85 LINE",
"50 86 LINE"
);
},
{
closed = 1;
nodes = (
"94 86 LINE",
"94 85 LINE",
"93 85 LINE",
"93 86 LINE"
);
}
);
width = 144;
}
);
unicode = 0023;
},
{
glyphname = question;
lastChange = "2013-05-31 19:58:44 +0200";
layers = (
{
layerId = "940E2F63-624A-4C3D-A909-721782B4CF41";
name = Regular;
paths = (
{
closed = 1;
nodes = (
"8 128 LINE",
"8 86 LINE",
"94 86 LINE",
"94 85 LINE",
"51 85 LINE",
"51 43 LINE",
"136 43 LINE",
"136 128 LINE"
);
},
{
closed = 1;
nodes = (
"93 42 LINE",
"51 42 LINE",
"51 0 LINE",
"93 0 LINE"
);
}
);
width = 144;
}
);
unicode = 003F;
},
{
glyphname = braceleft;
lastChange = "2013-05-31 19:59:17 +0200";
layers = (
{
layerId = "940E2F63-624A-4C3D-A909-721782B4CF41";
name = Regular;
paths = (
{
closed = 1;
nodes = (
"136 86 LINE",
"136 128 LINE",
"51 128 LINE",
"51 85 LINE",
"8 85 LINE",
"8 43 LINE",
"51 43 LINE",
"51 0 LINE",
"136 0 LINE",
"136 42 LINE",
"93 42 LINE",
"93 86 LINE"
);
}
);
width = 144;
}
);
unicode = 007B;
},
{
glyphname = divide;
lastChange = "2013-05-31 19:59:55 +0200";
layers = (
{
components = (
{
name = minus;
transform = "{1, 0, 0, 1, 0, 0}";
}
);
layerId = "940E2F63-624A-4C3D-A909-721782B4CF41";
name = Regular;
paths = (
{
closed = 1;
nodes = (
"51 42 LINE",
"51 0 LINE",
"93 0 LINE",
"93 42 LINE"
);
},
{
closed = 1;
nodes = (
"51 86 LINE",
"93 86 LINE",
"93 128 LINE",
"51 128 LINE"
);
}
);
width = 144;
}
);
unicode = 00F7;
},
{
glyphname = minus;
lastChange = "2013-05-31 20:00:08 +0200";
layers = (
{
layerId = "940E2F63-624A-4C3D-A909-721782B4CF41";
name = Regular;
paths = (
{
closed = 1;
nodes = (
"8 85 LINE",
"8 43 LINE",
"136 43 LINE",
"136 85 LINE"
);
}
);
width = 144;
}
);
unicode = 2212;
},
{
glyphname = plus;
lastChange = "2013-05-31 20:00:35 +0200";
layers = (
{
layerId = "940E2F63-624A-4C3D-A909-721782B4CF41";
name = Regular;
paths = (
{
closed = 1;
nodes = (
"136 85 LINE",
"93 85 LINE",
"93 128 LINE",
"51 128 LINE",
"51 85 LINE",
"8 85 LINE",
"8 43 LINE",
"51 43 LINE",
"51 0 LINE",
"93 0 LINE",
"93 43 LINE",
"136 43 LINE"
);
}
);
width = 144;
}
);
unicode = 002B;
},
{
glyphname = ampersand;
lastChange = "2013-05-31 20:01:05 +0200";
layers = (
{
layerId = "940E2F63-624A-4C3D-A909-721782B4CF41";
name = Regular;
paths = (
{
closed = 1;
nodes = (
"51 128 LINE",
"51 85 LINE",
"8 85 LINE",
"8 0 LINE",
"136 0 LINE",
"136 42 LINE",
"40 42 LINE",
"40 43 LINE",
"136 43 LINE",
"136 128 LINE"
);
},
{
closed = 1;
nodes = (
"94 86 LINE",
"94 85 LINE",
"93 85 LINE",
"93 86 LINE"
);
}
);
width = 144;
}
);
unicode = 0026;
},
{
glyphname = degree;
lastChange = "2013-05-31 20:01:45 +0200";
layers = (
{
layerId = "940E2F63-624A-4C3D-A909-721782B4CF41";
name = Regular;
paths = (
{
closed = 1;
nodes = (
"93 128 LINE",
"8 128 LINE",
"8 43 LINE",
"93 43 LINE"
);
},
{
closed = 1;
nodes = (
"94 42 LINE",
"51 42 LINE",
"51 0 LINE",
"136 0 LINE",
"136 85 LINE",
"94 85 LINE"
);
},
{
closed = 1;
nodes = (
"51 86 LINE",
"51 85 LINE",
"50 85 LINE",
"50 86 LINE"
);
}
